<mxfile host="app.diagrams.net" agent="Mozilla/5.0 (Windows NT 10.0; Win64; x64; rv:130.0) Gecko/20100101 Firefox/130.0" version="24.7.16">
  <diagram name="Seite-1" id="iy-Iw7KtTsFvsepUOq8L">
    <mxGraphModel dx="2018" dy="2677" grid="1" gridSize="10" guides="1" tooltips="1" connect="1" arrows="1" fold="1" page="1" pageScale="1" pageWidth="827" pageHeight="1169" math="0" shadow="0">
      <root>
        <mxCell id="0" />
        <mxCell id="1" parent="0" />
        <mxCell id="c27zUoi5xmDvEjXcdy7_-19" value="" style="rounded=1;whiteSpace=wrap;html=1;" parent="1" vertex="1">
          <mxGeometry x="30" y="70" width="560" height="380" as="geometry" />
        </mxCell>
        <mxCell id="c27zUoi5xmDvEjXcdy7_-5" value="" style="ellipse;shape=cloud;whiteSpace=wrap;html=1;" parent="1" vertex="1">
          <mxGeometry x="610" y="-70" width="1140" height="730" as="geometry" />
        </mxCell>
        <mxCell id="c27zUoi5xmDvEjXcdy7_-6" style="edgeStyle=orthogonalEdgeStyle;rounded=0;orthogonalLoop=1;jettySize=auto;html=1;entryX=0;entryY=0.5;entryDx=0;entryDy=0;" parent="1" source="c27zUoi5xmDvEjXcdy7_-1" target="c27zUoi5xmDvEjXcdy7_-2" edge="1">
          <mxGeometry relative="1" as="geometry" />
        </mxCell>
        <mxCell id="c27zUoi5xmDvEjXcdy7_-1" value="Powermessung" style="rounded=0;whiteSpace=wrap;html=1;fillColor=#e1d5e7;strokeColor=#9673a6;" parent="1" vertex="1">
          <mxGeometry x="60" y="250" width="90" height="90" as="geometry" />
        </mxCell>
        <mxCell id="c27zUoi5xmDvEjXcdy7_-7" style="edgeStyle=orthogonalEdgeStyle;rounded=0;orthogonalLoop=1;jettySize=auto;html=1;entryX=0;entryY=0.5;entryDx=0;entryDy=0;" parent="1" source="c27zUoi5xmDvEjXcdy7_-2" target="c27zUoi5xmDvEjXcdy7_-3" edge="1">
          <mxGeometry relative="1" as="geometry" />
        </mxCell>
        <mxCell id="c27zUoi5xmDvEjXcdy7_-2" value="Powermessung" style="rounded=0;whiteSpace=wrap;html=1;fillColor=#e1d5e7;strokeColor=#9673a6;" parent="1" vertex="1">
          <mxGeometry x="180" y="250" width="90" height="90" as="geometry" />
        </mxCell>
        <mxCell id="c27zUoi5xmDvEjXcdy7_-8" style="edgeStyle=orthogonalEdgeStyle;rounded=0;orthogonalLoop=1;jettySize=auto;html=1;" parent="1" source="c27zUoi5xmDvEjXcdy7_-3" target="c27zUoi5xmDvEjXcdy7_-4" edge="1">
          <mxGeometry relative="1" as="geometry" />
        </mxCell>
        <mxCell id="c27zUoi5xmDvEjXcdy7_-3" value="Powermessung" style="rounded=0;whiteSpace=wrap;html=1;fillColor=#e1d5e7;strokeColor=#9673a6;" parent="1" vertex="1">
          <mxGeometry x="300" y="250" width="90" height="90" as="geometry" />
        </mxCell>
        <mxCell id="c27zUoi5xmDvEjXcdy7_-13" style="edgeStyle=orthogonalEdgeStyle;rounded=0;orthogonalLoop=1;jettySize=auto;html=1;entryX=0;entryY=0.5;entryDx=0;entryDy=0;" parent="1" source="c27zUoi5xmDvEjXcdy7_-4" target="c27zUoi5xmDvEjXcdy7_-9" edge="1">
          <mxGeometry relative="1" as="geometry" />
        </mxCell>
        <mxCell id="c27zUoi5xmDvEjXcdy7_-4" value="MQTT RS485 Adapter" style="rounded=0;whiteSpace=wrap;html=1;fillColor=#e1d5e7;strokeColor=#9673a6;" parent="1" vertex="1">
          <mxGeometry x="420" y="205" width="146" height="180" as="geometry" />
        </mxCell>
        <mxCell id="c27zUoi5xmDvEjXcdy7_-14" style="edgeStyle=orthogonalEdgeStyle;rounded=0;orthogonalLoop=1;jettySize=auto;html=1;entryX=0;entryY=0.5;entryDx=0;entryDy=0;" parent="1" source="c27zUoi5xmDvEjXcdy7_-9" target="c27zUoi5xmDvEjXcdy7_-10" edge="1">
          <mxGeometry relative="1" as="geometry" />
        </mxCell>
        <mxCell id="c27zUoi5xmDvEjXcdy7_-9" value="MQTT Broker " style="rounded=0;whiteSpace=wrap;html=1;" parent="1" vertex="1">
          <mxGeometry x="850" y="207.5" width="160" height="170" as="geometry" />
        </mxCell>
        <mxCell id="c27zUoi5xmDvEjXcdy7_-15" style="edgeStyle=orthogonalEdgeStyle;rounded=0;orthogonalLoop=1;jettySize=auto;html=1;entryX=0;entryY=0.5;entryDx=0;entryDy=0;" parent="1" source="c27zUoi5xmDvEjXcdy7_-10" target="c27zUoi5xmDvEjXcdy7_-11" edge="1">
          <mxGeometry relative="1" as="geometry" />
        </mxCell>
        <mxCell id="c27zUoi5xmDvEjXcdy7_-10" value="Middleware" style="rounded=0;whiteSpace=wrap;html=1;fillColor=#e1d5e7;strokeColor=#9673a6;" parent="1" vertex="1">
          <mxGeometry x="1050" y="205" width="140" height="175" as="geometry" />
        </mxCell>
        <mxCell id="c27zUoi5xmDvEjXcdy7_-17" style="edgeStyle=orthogonalEdgeStyle;rounded=0;orthogonalLoop=1;jettySize=auto;html=1;entryX=0;entryY=0.5;entryDx=0;entryDy=0;" parent="1" source="c27zUoi5xmDvEjXcdy7_-11" target="c27zUoi5xmDvEjXcdy7_-12" edge="1">
          <mxGeometry relative="1" as="geometry" />
        </mxCell>
        <mxCell id="c27zUoi5xmDvEjXcdy7_-11" value="Database" style="rounded=0;whiteSpace=wrap;html=1;" parent="1" vertex="1">
          <mxGeometry x="1230" y="205" width="140" height="175" as="geometry" />
        </mxCell>
        <mxCell id="c27zUoi5xmDvEjXcdy7_-12" value="Dashboard" style="rounded=0;whiteSpace=wrap;html=1;" parent="1" vertex="1">
          <mxGeometry x="1430" y="205" width="140" height="175" as="geometry" />
        </mxCell>
        <mxCell id="c27zUoi5xmDvEjXcdy7_-20" value="Stromverteiler Rack" style="text;html=1;align=center;verticalAlign=middle;whiteSpace=wrap;rounded=0;" parent="1" vertex="1">
          <mxGeometry x="193" y="80" width="220" height="30" as="geometry" />
        </mxCell>
        <mxCell id="c27zUoi5xmDvEjXcdy7_-22" value="&lt;font style=&quot;font-size: 30px;&quot;&gt;Server&lt;/font&gt;" style="text;html=1;align=center;verticalAlign=middle;whiteSpace=wrap;rounded=0;" parent="1" vertex="1">
          <mxGeometry x="1030" y="60" width="60" height="30" as="geometry" />
        </mxCell>
      </root>
    </mxGraphModel>
  </diagram>
</mxfile>
